<svg xmlns="http://www.w3.org/2000/svg" viewBox="0 0 24 24" fill="#232F3E"><path d="M6.763 10.036c0 .296.032.535.088.71.064.176.144.368.256.576.04.063.056.127.056.183 0 .08-.048.16-.152.24l-.503.335a.383.383 0 0 1-.208.072c-.08 0-.16-.04-.239-.112a2.47 2.47 0 0 1-.287-.374 6.18 6.18 0 0 1-.248-.47c-.622.734-1.405 1.101-2.347 1.101-.67 0-1.205-.191-1.596-.574-.391-.384-.59-.894-.59-1.533 0-.678.239-1.23.726-1.644.487-.415 1.133-.623 1.955-.623.272 0 .551.024.846.064.296.04.6.104.918.176v-.583c0-.607-.127-1.03-.375-1.277-.255-.248-.686-.367-1.3-.367-.28 0-.568.032-.863.104-.296.072-.583.16-.863.272a2.287 2.287 0 0 1-.28.104.488.488 0 0 1-.127.024c-.112 0-.168-.08-.168-.247v-.391c0-.128.016-.224.056-.28a.597.597 0 0 1 .224-.167c.28-.144.616-.264 1.01-.36a4.84 4.84 0 0 1 1.244-.152c.95 0 1.644.216 2.091.647.44.43.662 1.085.662 1.963v2.586zm-3.24 1.214c.263 0 .534-.048.822-.144.287-.096.543-.271.758-.51.128-.152.224-.32.272-.512.047-.191.08-.423.08-.694v-.335a6.66 6.66 0 0 0-.735-.136 6.02 6.02 0 0 0-.75-.048c-.535 0-.926.104-1.19.32-.263.215-.39.518-.39.917 0 .375.095.655.295.846.191.2.47.296.838.296zm6.41.862c-.144 0-.24-.024-.304-.08-.064-.048-.12-.16-.168-.311L7.586 5.55a1.398 1.398 0 0 1-.072-.343c0-.136.068-.208.2-.208h.783c.152 0 .256.024.312.08.064.048.112.16.16.312l1.342 5.284 1.245-5.284c.04-.16.088-.264.152-.312a.528.528 0 0 1 .32-.08h.638c.152 0 .256.024.32.08.064.048.12.16.152.312l1.261 5.348 1.381-5.348c.048-.16.104-.264.16-.312a.52.52 0 0 1 .311-.08h.743c.136 0 .208.064.208.208 0 .04-.008.08-.016.128a1.137 1.137 0 0 1-.056.216l-1.923 6.17c-.048.16-.104.264-.168.312a.528.528 0 0 1-.32.08h-.687c-.152 0-.256-.024-.32-.08-.064-.056-.12-.16-.151-.32l-1.238-5.148-1.23 5.14c-.04.16-.087.264-.15.32-.065.056-.177.08-.32.08zm10.256.215c-.415 0-.83-.048-1.229-.143-.399-.096-.71-.2-.918-.32-.128-.071-.216-.151-.248-.223a.504.504 0 0 1-.048-.224v-.407c0-.167.064-.247.183-.247.048 0 .096.008.144.024.048.016.12.048.2.08.271.12.566.215.878.279.319.064.63.096.95.096.502 0 .894-.088 1.165-.264a.86.86 0 0 0 .415-.758.777.777 0 0 0-.215-.559c-.144-.151-.415-.287-.807-.414l-1.157-.36c-.583-.183-1.014-.454-1.277-.813a1.902 1.902 0 0 1-.4-1.158c0-.335.073-.63.216-.886.144-.255.336-.479.575-.654.24-.184.51-.32.83-.415.32-.096.655-.136 1.006-.136.176 0 .36.008.535.032.183.024.35.056.518.088.16.04.312.08.455.127.144.048.256.096.336.144a.69.69 0 0 1 .24.2.43.43 0 0 1 .071.263v.375c0 .168-.064.256-.184.256a.83.83 0 0 1-.303-.096 3.652 3.652 0 0 0-1.532-.311c-.455 0-.815.072-1.062.223-.248.152-.375.383-.375.694 0 .224.08.416.24.567.16.152.454.304.878.44l1.134.358c.574.184.99.44 1.237.767.248.328.367.703.367 1.117 0 .343-.072.655-.207.926-.144.272-.336.511-.583.703-.248.2-.543.343-.886.447-.36.111-.734.167-1.142.167z"/><path d="M21.408 16.79c-2.674 1.973-6.553 3.022-9.892 3.022-4.676 0-8.89-1.73-12.078-4.607-.25-.224-.024-.535.28-.36 3.44 2.004 7.697 3.21 12.094 3.21 2.963 0 6.224-.614 9.228-1.893.455-.2.83.295.367.628z" fill="#FF9900"/><path d="M22.348 15.686c-.344-.44-2.27-.208-3.14-.104-.263.032-.303-.2-.063-.368 1.533-1.078 4.055-.767 4.35-.407.296.368-.08 2.891-1.518 4.099-.224.184-.431.088-.335-.16.327-.806 1.054-2.627.706-3.06z" fill="#FF9900"/></svg>